<svg width="24" height="24" viewBox="0 0 24 24" fill="none" xmlns="http://www.w3.org/2000/svg">
<mask id="mask0_160_214" style="mask-type:alpha" maskUnits="userSpaceOnUse" x="0" y="0" width="24" height="24">
<rect width="24" height="24" fill="#D9D9D9"/>
</mask>
<g mask="url(#mask0_160_214)">
<path d="M7.0745 20.5002C6.64767 20.5002 6.28025 20.3462 5.97225 20.0382C5.66425 19.7302 5.51025 19.3628 5.51025 18.936V5.63472H5.12825C4.95025 5.63472 4.80108 5.57422 4.68075 5.45322C4.56025 5.33222 4.5 5.18222 4.5 5.00322C4.5 4.82439 4.56025 4.67556 4.68075 4.55672C4.80108 4.43789 4.95025 4.37847 5.12825 4.37847H8.85125C8.85125 4.16514 8.92583 3.98472 9.075 3.83722C9.224 3.68956 9.40367 3.61572 9.614 3.61572H14.386C14.5963 3.61572 14.776 3.69022 14.925 3.83922C15.0742 3.98839 15.1488 4.16814 15.1488 4.37847H18.8718C19.0498 4.37847 19.1989 4.43897 19.3193 4.55997C19.4398 4.68114 19.5 4.83114 19.5 5.00997C19.5 5.18897 19.4398 5.33789 19.3193 5.45672C19.1989 5.57539 19.0498 5.63472 18.8718 5.63472H18.4898V18.936C18.4898 19.3628 18.3358 19.7302 18.0278 20.0382C17.7198 20.3462 17.3523 20.5002 16.9255 20.5002H7.0745ZM17.2333 5.63472H6.76675V18.936C6.76675 19.0258 6.79667 19.0996 6.8565 19.1572C6.91633 19.2149 6.989 19.2437 7.0745 19.2437H16.9255C17.011 19.2437 17.0837 19.2149 17.1435 19.1572C17.2033 19.0996 17.2333 19.0258 17.2333 18.936V5.63472ZM10.12 17.1695C10.299 17.1695 10.4479 17.1093 10.5668 16.989C10.6854 16.8685 10.7448 16.7192 10.7448 16.5412V8.32072C10.7448 8.14689 10.6843 7.99872 10.5633 7.87622C10.4423 7.75372 10.2923 7.69247 10.1133 7.69247C9.93442 7.69247 9.78558 7.75372 9.66675 7.87622C9.54792 7.99872 9.4885 8.14689 9.4885 8.32072V16.5412C9.4885 16.7192 9.549 16.8685 9.67 16.989C9.79117 17.1093 9.94117 17.1695 10.12 17.1695ZM13.8868 17.1695C14.0656 17.1695 14.2144 17.1093 14.3333 16.989C14.4521 16.8685 14.5115 16.7192 14.5115 16.5412V8.32072C14.5115 8.14689 14.451 7.99872 14.33 7.87622C14.2088 7.75372 14.0588 7.69247 13.88 7.69247C13.701 7.69247 13.5521 7.75372 13.4333 7.87622C13.3146 7.99872 13.2553 8.14689 13.2553 8.32072V16.5412C13.2553 16.7192 13.3158 16.8685 13.4368 16.989C13.5577 17.1093 13.7078 17.1695 13.8868 17.1695Z" fill="#1A1A1A"/>
</g>
</svg>
